<mxfile host="app.diagrams.net" modified="2024-03-15T06:49:00.112Z" agent="Mozilla/5.0 (Windows NT 10.0; Win64; x64) AppleWebKit/537.36 (KHTML, like Gecko) Chrome/122.0.0.0 Safari/537.36" etag="U_rOdW_BSLhCGRTbkVD6" version="24.0.5" type="github">
  <diagram id="C5RBs43oDa-KdzZeNtuy" name="Page-1">
    <mxGraphModel dx="1833" dy="576" grid="1" gridSize="10" guides="1" tooltips="1" connect="1" arrows="1" fold="1" page="1" pageScale="1" pageWidth="827" pageHeight="1169" math="0" shadow="0">
      <root>
        <mxCell id="WIyWlLk6GJQsqaUBKTNV-0" />
        <mxCell id="WIyWlLk6GJQsqaUBKTNV-1" parent="WIyWlLk6GJQsqaUBKTNV-0" />
        <mxCell id="WIyWlLk6GJQsqaUBKTNV-2" value="" style="rounded=0;html=1;jettySize=auto;orthogonalLoop=1;fontSize=11;endArrow=block;endFill=0;endSize=8;strokeWidth=1;shadow=0;labelBackgroundColor=none;edgeStyle=orthogonalEdgeStyle;" parent="WIyWlLk6GJQsqaUBKTNV-1" source="WIyWlLk6GJQsqaUBKTNV-3" target="WIyWlLk6GJQsqaUBKTNV-6" edge="1">
          <mxGeometry relative="1" as="geometry" />
        </mxCell>
        <mxCell id="WIyWlLk6GJQsqaUBKTNV-3" value="开始" style="rounded=1;whiteSpace=wrap;html=1;fontSize=12;glass=0;strokeWidth=1;shadow=0;" parent="WIyWlLk6GJQsqaUBKTNV-1" vertex="1">
          <mxGeometry x="160" y="80" width="120" height="40" as="geometry" />
        </mxCell>
        <mxCell id="WIyWlLk6GJQsqaUBKTNV-4" value="是" style="rounded=0;html=1;jettySize=auto;orthogonalLoop=1;fontSize=11;endArrow=block;endFill=0;endSize=8;strokeWidth=1;shadow=0;labelBackgroundColor=none;edgeStyle=orthogonalEdgeStyle;" parent="WIyWlLk6GJQsqaUBKTNV-1" source="WIyWlLk6GJQsqaUBKTNV-6" edge="1">
          <mxGeometry x="0.0122" y="10" relative="1" as="geometry">
            <mxPoint y="-1" as="offset" />
            <mxPoint x="220" y="290" as="targetPoint" />
          </mxGeometry>
        </mxCell>
        <mxCell id="WIyWlLk6GJQsqaUBKTNV-5" value="否" style="edgeStyle=orthogonalEdgeStyle;rounded=0;html=1;jettySize=auto;orthogonalLoop=1;fontSize=11;endArrow=block;endFill=0;endSize=8;strokeWidth=1;shadow=0;labelBackgroundColor=none;" parent="WIyWlLk6GJQsqaUBKTNV-1" source="WIyWlLk6GJQsqaUBKTNV-6" target="WIyWlLk6GJQsqaUBKTNV-7" edge="1">
          <mxGeometry y="10" relative="1" as="geometry">
            <mxPoint as="offset" />
          </mxGeometry>
        </mxCell>
        <mxCell id="WIyWlLk6GJQsqaUBKTNV-6" value="登录" style="rhombus;whiteSpace=wrap;html=1;shadow=0;fontFamily=Helvetica;fontSize=12;align=center;strokeWidth=1;spacing=6;spacingTop=-4;" parent="WIyWlLk6GJQsqaUBKTNV-1" vertex="1">
          <mxGeometry x="170" y="170" width="100" height="80" as="geometry" />
        </mxCell>
        <mxCell id="_mTl8362LMcrXSRPTbrh-0" value="" style="edgeStyle=orthogonalEdgeStyle;rounded=0;orthogonalLoop=1;jettySize=auto;html=1;" edge="1" parent="WIyWlLk6GJQsqaUBKTNV-1" source="WIyWlLk6GJQsqaUBKTNV-7" target="WIyWlLk6GJQsqaUBKTNV-6">
          <mxGeometry relative="1" as="geometry" />
        </mxCell>
        <mxCell id="WIyWlLk6GJQsqaUBKTNV-7" value="结束" style="rounded=1;whiteSpace=wrap;html=1;fontSize=12;glass=0;strokeWidth=1;shadow=0;" parent="WIyWlLk6GJQsqaUBKTNV-1" vertex="1">
          <mxGeometry x="320" y="190" width="120" height="40" as="geometry" />
        </mxCell>
        <mxCell id="_mTl8362LMcrXSRPTbrh-1" value="进入系统" style="rounded=0;whiteSpace=wrap;html=1;" vertex="1" parent="WIyWlLk6GJQsqaUBKTNV-1">
          <mxGeometry x="160" y="290" width="120" height="40" as="geometry" />
        </mxCell>
        <mxCell id="_mTl8362LMcrXSRPTbrh-2" value="" style="endArrow=none;html=1;rounded=0;" edge="1" parent="WIyWlLk6GJQsqaUBKTNV-1">
          <mxGeometry width="50" height="50" relative="1" as="geometry">
            <mxPoint x="-190" y="370" as="sourcePoint" />
            <mxPoint x="620" y="370" as="targetPoint" />
          </mxGeometry>
        </mxCell>
        <mxCell id="_mTl8362LMcrXSRPTbrh-4" value="进入进货管理" style="rounded=0;whiteSpace=wrap;html=1;" vertex="1" parent="WIyWlLk6GJQsqaUBKTNV-1">
          <mxGeometry x="-240" y="410" width="120" height="40" as="geometry" />
        </mxCell>
        <mxCell id="_mTl8362LMcrXSRPTbrh-6" value="&lt;span style=&quot;font-family: &amp;quot;Microsoft YaHei&amp;quot;; font-size: 14px; text-align: left; text-wrap: nowrap; background-color: rgb(255, 247, 247);&quot;&gt;销售管理&lt;/span&gt;" style="rounded=0;whiteSpace=wrap;html=1;" vertex="1" parent="WIyWlLk6GJQsqaUBKTNV-1">
          <mxGeometry x="-80" y="410" width="120" height="40" as="geometry" />
        </mxCell>
        <mxCell id="_mTl8362LMcrXSRPTbrh-7" value="库存管理" style="rounded=0;whiteSpace=wrap;html=1;" vertex="1" parent="WIyWlLk6GJQsqaUBKTNV-1">
          <mxGeometry x="80" y="410" width="120" height="40" as="geometry" />
        </mxCell>
        <mxCell id="_mTl8362LMcrXSRPTbrh-8" value="统计报价" style="rounded=0;whiteSpace=wrap;html=1;" vertex="1" parent="WIyWlLk6GJQsqaUBKTNV-1">
          <mxGeometry x="240" y="410" width="120" height="40" as="geometry" />
        </mxCell>
        <mxCell id="_mTl8362LMcrXSRPTbrh-9" value="基础资料" style="rounded=0;whiteSpace=wrap;html=1;" vertex="1" parent="WIyWlLk6GJQsqaUBKTNV-1">
          <mxGeometry x="400" y="410" width="120" height="40" as="geometry" />
        </mxCell>
        <mxCell id="_mTl8362LMcrXSRPTbrh-10" value="系统管理" style="rounded=0;whiteSpace=wrap;html=1;" vertex="1" parent="WIyWlLk6GJQsqaUBKTNV-1">
          <mxGeometry x="560" y="410" width="120" height="40" as="geometry" />
        </mxCell>
        <mxCell id="_mTl8362LMcrXSRPTbrh-12" value="" style="endArrow=classic;html=1;rounded=0;entryX=0.411;entryY=-0.043;entryDx=0;entryDy=0;entryPerimeter=0;" edge="1" parent="WIyWlLk6GJQsqaUBKTNV-1" target="_mTl8362LMcrXSRPTbrh-4">
          <mxGeometry width="50" height="50" relative="1" as="geometry">
            <mxPoint x="-190" y="370" as="sourcePoint" />
            <mxPoint x="-130" y="390" as="targetPoint" />
          </mxGeometry>
        </mxCell>
        <mxCell id="_mTl8362LMcrXSRPTbrh-13" value="" style="endArrow=classic;html=1;rounded=0;entryX=0.5;entryY=0;entryDx=0;entryDy=0;" edge="1" parent="WIyWlLk6GJQsqaUBKTNV-1" target="_mTl8362LMcrXSRPTbrh-6">
          <mxGeometry width="50" height="50" relative="1" as="geometry">
            <mxPoint x="-20" y="370" as="sourcePoint" />
            <mxPoint x="10" y="350" as="targetPoint" />
          </mxGeometry>
        </mxCell>
        <mxCell id="_mTl8362LMcrXSRPTbrh-14" value="" style="endArrow=classic;html=1;rounded=0;entryX=0.5;entryY=0;entryDx=0;entryDy=0;" edge="1" parent="WIyWlLk6GJQsqaUBKTNV-1">
          <mxGeometry width="50" height="50" relative="1" as="geometry">
            <mxPoint x="139.64" y="370" as="sourcePoint" />
            <mxPoint x="139.64" y="410" as="targetPoint" />
          </mxGeometry>
        </mxCell>
        <mxCell id="_mTl8362LMcrXSRPTbrh-15" value="" style="endArrow=classic;html=1;rounded=0;entryX=0.5;entryY=0;entryDx=0;entryDy=0;" edge="1" parent="WIyWlLk6GJQsqaUBKTNV-1">
          <mxGeometry width="50" height="50" relative="1" as="geometry">
            <mxPoint x="299.64" y="370" as="sourcePoint" />
            <mxPoint x="299.64" y="410" as="targetPoint" />
            <Array as="points">
              <mxPoint x="299.64" y="390" />
            </Array>
          </mxGeometry>
        </mxCell>
        <mxCell id="_mTl8362LMcrXSRPTbrh-16" value="" style="endArrow=classic;html=1;rounded=0;entryX=0.5;entryY=0;entryDx=0;entryDy=0;" edge="1" parent="WIyWlLk6GJQsqaUBKTNV-1">
          <mxGeometry width="50" height="50" relative="1" as="geometry">
            <mxPoint x="459.64" y="370" as="sourcePoint" />
            <mxPoint x="459.64" y="410" as="targetPoint" />
          </mxGeometry>
        </mxCell>
        <mxCell id="_mTl8362LMcrXSRPTbrh-17" value="" style="endArrow=classic;html=1;rounded=0;entryX=0.5;entryY=0;entryDx=0;entryDy=0;" edge="1" parent="WIyWlLk6GJQsqaUBKTNV-1">
          <mxGeometry width="50" height="50" relative="1" as="geometry">
            <mxPoint x="619.64" y="370" as="sourcePoint" />
            <mxPoint x="619.64" y="410" as="targetPoint" />
          </mxGeometry>
        </mxCell>
        <mxCell id="_mTl8362LMcrXSRPTbrh-18" value="" style="endArrow=none;html=1;rounded=0;entryX=0.5;entryY=1;entryDx=0;entryDy=0;" edge="1" parent="WIyWlLk6GJQsqaUBKTNV-1" target="_mTl8362LMcrXSRPTbrh-1">
          <mxGeometry width="50" height="50" relative="1" as="geometry">
            <mxPoint x="220" y="370" as="sourcePoint" />
            <mxPoint x="230" y="350" as="targetPoint" />
          </mxGeometry>
        </mxCell>
        <mxCell id="_mTl8362LMcrXSRPTbrh-20" value="&lt;span style=&quot;font-family: &amp;quot;Microsoft YaHei&amp;quot;; font-size: 14px; text-align: left; text-wrap: nowrap; background-color: rgb(255, 255, 255);&quot;&gt;进货入库&lt;/span&gt;" style="rounded=0;whiteSpace=wrap;html=1;fillColor=default;horizontal=1;textDirection=vertical-lr;" vertex="1" parent="WIyWlLk6GJQsqaUBKTNV-1">
          <mxGeometry x="-220" y="480" width="30" height="110" as="geometry" />
        </mxCell>
        <mxCell id="_mTl8362LMcrXSRPTbrh-21" value="&lt;div style=&quot;text-align: left;&quot;&gt;&lt;font face=&quot;Microsoft YaHei&quot;&gt;&lt;span style=&quot;font-size: 14px; text-wrap: nowrap; background-color: rgb(255, 255, 255);&quot;&gt;退货入库&lt;/span&gt;&lt;/font&gt;&lt;/div&gt;" style="rounded=0;whiteSpace=wrap;html=1;fillColor=default;horizontal=1;textDirection=vertical-lr;" vertex="1" parent="WIyWlLk6GJQsqaUBKTNV-1">
          <mxGeometry x="-180" y="480" width="30" height="110" as="geometry" />
        </mxCell>
        <mxCell id="_mTl8362LMcrXSRPTbrh-23" value="&lt;div style=&quot;text-align: left;&quot;&gt;&lt;font face=&quot;Microsoft YaHei&quot;&gt;&lt;span style=&quot;font-size: 14px; text-wrap: nowrap; background-color: rgb(255, 255, 255);&quot;&gt;销售出库&lt;/span&gt;&lt;/font&gt;&lt;/div&gt;" style="rounded=0;whiteSpace=wrap;html=1;fillColor=default;horizontal=1;textDirection=vertical-lr;" vertex="1" parent="WIyWlLk6GJQsqaUBKTNV-1">
          <mxGeometry x="-70" y="480" width="30" height="110" as="geometry" />
        </mxCell>
        <mxCell id="_mTl8362LMcrXSRPTbrh-24" value="&lt;div style=&quot;text-align: left;&quot;&gt;&lt;font face=&quot;Microsoft YaHei&quot;&gt;&lt;span style=&quot;font-size: 14px; text-wrap: nowrap; background-color: rgb(255, 255, 255);&quot;&gt;客户退货&lt;/span&gt;&lt;/font&gt;&lt;/div&gt;" style="rounded=0;whiteSpace=wrap;html=1;fillColor=default;horizontal=1;textDirection=vertical-lr;" vertex="1" parent="WIyWlLk6GJQsqaUBKTNV-1">
          <mxGeometry x="-20" y="480" width="30" height="110" as="geometry" />
        </mxCell>
        <mxCell id="_mTl8362LMcrXSRPTbrh-25" value="&lt;div style=&quot;text-align: left;&quot;&gt;&lt;font face=&quot;Microsoft YaHei&quot;&gt;&lt;span style=&quot;font-size: 14px; text-wrap: nowrap;&quot;&gt;商品报溢&lt;/span&gt;&lt;/font&gt;&lt;br&gt;&lt;/div&gt;" style="rounded=0;whiteSpace=wrap;html=1;fillColor=default;horizontal=1;textDirection=vertical-lr;" vertex="1" parent="WIyWlLk6GJQsqaUBKTNV-1">
          <mxGeometry x="90" y="480" width="30" height="110" as="geometry" />
        </mxCell>
        <mxCell id="_mTl8362LMcrXSRPTbrh-26" value="&lt;div style=&quot;text-align: left;&quot;&gt;&lt;font face=&quot;Microsoft YaHei&quot;&gt;&lt;span style=&quot;font-size: 14px; text-wrap: nowrap; background-color: rgb(255, 255, 255);&quot;&gt;商品报损&lt;/span&gt;&lt;/font&gt;&lt;/div&gt;" style="rounded=0;whiteSpace=wrap;html=1;fillColor=default;horizontal=1;textDirection=vertical-lr;" vertex="1" parent="WIyWlLk6GJQsqaUBKTNV-1">
          <mxGeometry x="130" y="480" width="30" height="110" as="geometry" />
        </mxCell>
        <mxCell id="_mTl8362LMcrXSRPTbrh-27" value="&lt;div style=&quot;text-align: left;&quot;&gt;&lt;font face=&quot;Microsoft YaHei&quot;&gt;&lt;span style=&quot;font-size: 14px; text-wrap: nowrap;&quot;&gt;供应商统计&lt;/span&gt;&lt;/font&gt;&lt;br&gt;&lt;/div&gt;" style="rounded=0;whiteSpace=wrap;html=1;fillColor=default;horizontal=1;textDirection=vertical-lr;" vertex="1" parent="WIyWlLk6GJQsqaUBKTNV-1">
          <mxGeometry x="250" y="480" width="30" height="110" as="geometry" />
        </mxCell>
        <mxCell id="_mTl8362LMcrXSRPTbrh-28" value="&lt;div style=&quot;text-align: left;&quot;&gt;&lt;font face=&quot;Microsoft YaHei&quot;&gt;&lt;span style=&quot;font-size: 14px; text-wrap: nowrap;&quot;&gt;客户统计&lt;/span&gt;&lt;/font&gt;&lt;br&gt;&lt;/div&gt;" style="rounded=0;whiteSpace=wrap;html=1;fillColor=default;horizontal=1;textDirection=vertical-lr;" vertex="1" parent="WIyWlLk6GJQsqaUBKTNV-1">
          <mxGeometry x="290" y="480" width="30" height="110" as="geometry" />
        </mxCell>
        <mxCell id="_mTl8362LMcrXSRPTbrh-29" value="&lt;div style=&quot;text-align: left;&quot;&gt;&lt;font face=&quot;Microsoft YaHei&quot;&gt;&lt;span style=&quot;font-size: 14px; text-wrap: nowrap;&quot;&gt;供应商管理&lt;/span&gt;&lt;/font&gt;&lt;br&gt;&lt;/div&gt;" style="rounded=0;whiteSpace=wrap;html=1;fillColor=default;horizontal=1;textDirection=vertical-lr;" vertex="1" parent="WIyWlLk6GJQsqaUBKTNV-1">
          <mxGeometry x="410" y="480" width="30" height="110" as="geometry" />
        </mxCell>
        <mxCell id="_mTl8362LMcrXSRPTbrh-30" value="&lt;div style=&quot;text-align: left;&quot;&gt;&lt;font face=&quot;Microsoft YaHei&quot;&gt;&lt;span style=&quot;font-size: 14px; text-wrap: nowrap;&quot;&gt;客户管理&lt;/span&gt;&lt;/font&gt;&lt;br&gt;&lt;/div&gt;" style="rounded=0;whiteSpace=wrap;html=1;fillColor=default;horizontal=1;textDirection=vertical-lr;" vertex="1" parent="WIyWlLk6GJQsqaUBKTNV-1">
          <mxGeometry x="450" y="480" width="30" height="110" as="geometry" />
        </mxCell>
        <mxCell id="_mTl8362LMcrXSRPTbrh-31" value="&lt;div style=&quot;text-align: left;&quot;&gt;&lt;font face=&quot;Microsoft YaHei&quot;&gt;&lt;span style=&quot;font-size: 14px; text-wrap: nowrap;&quot;&gt;角色管理&lt;/span&gt;&lt;/font&gt;&lt;br&gt;&lt;/div&gt;" style="rounded=0;whiteSpace=wrap;html=1;fillColor=default;horizontal=1;textDirection=vertical-lr;" vertex="1" parent="WIyWlLk6GJQsqaUBKTNV-1">
          <mxGeometry x="570" y="480" width="30" height="110" as="geometry" />
        </mxCell>
        <mxCell id="_mTl8362LMcrXSRPTbrh-32" value="&lt;div style=&quot;text-align: left;&quot;&gt;&lt;font face=&quot;Microsoft YaHei&quot;&gt;&lt;span style=&quot;font-size: 14px; text-wrap: nowrap;&quot;&gt;用户管理&lt;/span&gt;&lt;/font&gt;&lt;br&gt;&lt;/div&gt;" style="rounded=0;whiteSpace=wrap;html=1;fillColor=default;horizontal=1;textDirection=vertical-lr;" vertex="1" parent="WIyWlLk6GJQsqaUBKTNV-1">
          <mxGeometry x="610" y="480" width="30" height="110" as="geometry" />
        </mxCell>
      </root>
    </mxGraphModel>
  </diagram>
</mxfile>
